<svg xmlns="http://www.w3.org/2000/svg" width="49.99" height="49.137" viewBox="0 0 49.99 49.137">
  <path id="Icon_awesome-cube" data-name="Icon awesome-cube" d="M23.35.615,3.037,8.232A4.694,4.694,0,0,0,0,12.627V34.609A4.685,4.685,0,0,0,2.588,38.8L22.9,48.955a4.654,4.654,0,0,0,4.189,0L47.4,38.8a4.678,4.678,0,0,0,2.588-4.189V12.627a4.681,4.681,0,0,0-3.037-4.385L26.641.625A4.606,4.606,0,0,0,23.35.615ZM25,6.68l18.75,7.031v.107L25,21.436,6.25,13.818v-.107Zm3.125,34.766V26.9L43.75,20.557V33.633Z" transform="translate(0 -0.316)"/>
</svg>

