<svg xmlns="http://www.w3.org/2000/svg" width="43.749" height="50" viewBox="0 0 43.749 50">
  <path id="Icon_awesome-chair" data-name="Icon awesome-chair" d="M10.938,12.5a7.79,7.79,0,0,1,3.906-6.729V25h4.688V4.688h4.688V25h4.688V5.771A7.79,7.79,0,0,1,32.813,12.5V25H37.5V12.5A12.5,12.5,0,0,0,25,0H18.75A12.5,12.5,0,0,0,6.25,12.5V25h4.688ZM43.584,33.389l-1.045-3.125a3.129,3.129,0,0,0-2.969-2.139H4.17A3.129,3.129,0,0,0,1.2,30.264L.156,33.389A3.133,3.133,0,0,0,3.125,37.5V48.438A1.567,1.567,0,0,0,4.688,50H7.813a1.567,1.567,0,0,0,1.563-1.562V37.5h25V48.438A1.567,1.567,0,0,0,35.938,50h3.125a1.567,1.567,0,0,0,1.563-1.562V37.5A3.123,3.123,0,0,0,43.584,33.389Z" transform="translate(0.002)"/>
</svg>


