<svg xmlns="http://www.w3.org/2000/svg" width="40.902" height="28.571" viewBox="0 0 40.902 28.571">
  <path id="Icon_metro-books" data-name="Icon metro-books" d="M11.9,11.9H4.762a1.194,1.194,0,0,0-1.19,1.19v26.19a1.194,1.194,0,0,0,1.19,1.19H11.9a1.194,1.194,0,0,0,1.19-1.19V13.1A1.194,1.194,0,0,0,11.9,11.9Zm-1.19,7.143H5.952V16.667h4.762ZM23.81,11.9H16.667a1.194,1.194,0,0,0-1.19,1.19v26.19a1.194,1.194,0,0,0,1.19,1.19H23.81A1.194,1.194,0,0,0,25,39.286V13.1a1.194,1.194,0,0,0-1.19-1.19Zm-1.19,7.143H17.857V16.667h4.762Zm9.415-5.3L25.656,16.96a1.194,1.194,0,0,0-.527,1.6L35.842,39.821a1.194,1.194,0,0,0,1.6.527l6.379-3.214a1.194,1.194,0,0,0,.527-1.6L33.633,14.273a1.194,1.194,0,0,0-1.6-.528ZM38.1,39.286A1.19,1.19,0,1,1,36.9,38.1,1.19,1.19,0,0,1,38.1,39.286Z" transform="translate(-3.572 -11.905)"/>
</svg>


