<svg xmlns="http://www.w3.org/2000/svg" width="62.5" height="37.5" viewBox="0 0 62.5 37.5">
  <path id="Icon_awesome-bed" data-name="Icon awesome-bed" d="M17.188,25a7.813,7.813,0,1,0-7.812-7.812A7.822,7.822,0,0,0,17.188,25ZM51.563,12.5H29.688a1.562,1.562,0,0,0-1.562,1.563V28.125H6.25V7.813A1.562,1.562,0,0,0,4.688,6.25H1.563A1.562,1.562,0,0,0,0,7.813V42.188A1.562,1.562,0,0,0,1.563,43.75H4.688A1.562,1.562,0,0,0,6.25,42.188V37.5h50v4.688a1.562,1.562,0,0,0,1.563,1.563h3.125A1.562,1.562,0,0,0,62.5,42.188V23.438A10.937,10.937,0,0,0,51.563,12.5Z" transform="translate(0 -6.25)"/>
</svg>

