<svg xmlns="http://www.w3.org/2000/svg" width="70" height="60" viewBox="0 0 43.75 34.375">
  <g id="Icon_ionic-ios-bed" data-name="Icon ionic-ios-bed" transform="translate(-3.125 -7.813)">
    <path id="Tracé_22" data-name="Tracé 22" d="M44.746,20.313h-.039a2.134,2.134,0,0,0-2.129,2.129.217.217,0,0,1-.215.215H7.637a.217.217,0,0,1-.215-.215,2.134,2.134,0,0,0-2.129-2.129H5.254a2.134,2.134,0,0,0-2.129,2.129V40.059a2.134,2.134,0,0,0,2.129,2.129h.039a2.134,2.134,0,0,0,2.129-2.129v-.605a.392.392,0,0,1,.391-.391H42.188a.392.392,0,0,1,.391.391v.605a2.134,2.134,0,0,0,2.129,2.129h.039a2.134,2.134,0,0,0,2.129-2.129V22.441A2.134,2.134,0,0,0,44.746,20.313Z"/>
    <path id="Tracé_23" data-name="Tracé 23" d="M8.2,20.9h2.2a.392.392,0,0,0,.391-.391v-1.27a1.567,1.567,0,0,1,1.563-1.562h9.521a1.567,1.567,0,0,1,1.563,1.563v1.27a.392.392,0,0,0,.391.391h2.344a.392.392,0,0,0,.391-.391v-1.27a1.567,1.567,0,0,1,1.563-1.562h9.521a1.567,1.567,0,0,1,1.563,1.563v1.27a.392.392,0,0,0,.391.391h2.2a.784.784,0,0,0,.781-.781v-9.18a3.134,3.134,0,0,0-3.125-3.125H10.547a3.134,3.134,0,0,0-3.125,3.125v9.18A.784.784,0,0,0,8.2,20.9Z"/>
  </g>
</svg>

