<svg xmlns="http://www.w3.org/2000/svg" width="37.545" height="43.794" viewBox="0 0 37.545 43.794">
  <path id="Icon_awesome-door-closed" data-name="Icon awesome-door-closed" d="M50,43.75V4.961A4.835,4.835,0,0,0,45.313,0H17.187A4.835,4.835,0,0,0,12.5,4.961V43.75C12.184,43.831,12.57,43.781,50,43.75ZM40.624,28.125A3.125,3.125,0,1,1,43.749,25,3.125,3.125,0,0,1,40.624,28.125Z" transform="translate(-12.455)"/>
  <rect id="Rectangle_32" data-name="Rectangle 32" width="16" height="24" transform="translate(18.419 9.336)"/>
  <path id="Icon_ionic-ios-snow" data-name="Icon ionic-ios-snow" d="M22.079,17.212l-1.363-.791a3.659,3.659,0,0,1,1.1-.77.65.65,0,0,0,.374-.8.6.6,0,0,0-.568-.412.63.63,0,0,0-.231.046,4.913,4.913,0,0,0-1.762,1.312l-4.05-2.355,4.05-2.355A4.876,4.876,0,0,0,21.393,12.4a.63.63,0,0,0,.231.046.6.6,0,0,0,.568-.412.65.65,0,0,0-.374-.8,3.773,3.773,0,0,1-1.1-.77l1.363-.791a.636.636,0,0,0-.32-1.186.66.66,0,0,0-.32.084l-1.354.791a3.783,3.783,0,0,1-.109-1.346.65.65,0,0,0-.5-.728.642.642,0,0,0-.126-.013.6.6,0,0,0-.593.521,4.892,4.892,0,0,0,.257,2.2l-4.037,2.355V8.17a4.933,4.933,0,0,0,2.006-.879.6.6,0,0,0,.076-.875.647.647,0,0,0-.479-.214.658.658,0,0,0-.4.139,3.65,3.65,0,0,1-1.2.572V5.323a.652.652,0,0,0-1.3,0V6.9a3.76,3.76,0,0,1-1.2-.572.644.644,0,0,0-.879.076.6.6,0,0,0,.076.875,4.933,4.933,0,0,0,2.006.879v4.172L9.63,9.974a4.922,4.922,0,0,0,.252-2.2.594.594,0,0,0-.589-.521A.639.639,0,0,0,8.663,8a3.77,3.77,0,0,1-.109,1.342L7.2,8.557a.648.648,0,0,0-.32-.084.636.636,0,0,0-.32,1.186l1.363.791a3.715,3.715,0,0,1-1.1.77.65.65,0,0,0-.374.8.6.6,0,0,0,.568.412.63.63,0,0,0,.231-.046A4.913,4.913,0,0,0,9,11.076l4.05,2.355L9,15.786a4.876,4.876,0,0,0-1.762-1.312.63.63,0,0,0-.231-.046.6.6,0,0,0-.568.412.652.652,0,0,0,.374.8,3.715,3.715,0,0,1,1.1.77L6.556,17.2a.636.636,0,0,0,.32,1.186.66.66,0,0,0,.32-.084l1.358-.791a3.794,3.794,0,0,1,.109,1.346.639.639,0,0,0,.631.74.6.6,0,0,0,.593-.521,4.892,4.892,0,0,0-.257-2.2l4.037-2.355V18.7a4.933,4.933,0,0,0-2.006.879.6.6,0,0,0-.076.875.647.647,0,0,0,.479.214.658.658,0,0,0,.4-.139,3.7,3.7,0,0,1,1.2-.572v1.577a.652.652,0,0,0,1.3,0V19.958a3.76,3.76,0,0,1,1.2.572.658.658,0,0,0,.4.139.647.647,0,0,0,.479-.214.6.6,0,0,0-.076-.875,4.933,4.933,0,0,0-2.006-.879V14.529l4.037,2.355a4.922,4.922,0,0,0-.252,2.2.594.594,0,0,0,.589.521.639.639,0,0,0,.631-.74,3.786,3.786,0,0,1,.109-1.346l1.354.791a.648.648,0,0,0,.32.084.632.632,0,0,0,.32-1.178Z" transform="translate(4.455 8.468)" fill="#fff"/>
</svg>



