<svg xmlns="http://www.w3.org/2000/svg" width="75" height="45" viewBox="0 0 62.5 37.5">
  <path id="Icon_awesome-bicycle" data-name="Icon awesome-bicycle" d="M50.05,18.75a12.47,12.47,0,0,0-4.535.83L37.929,7.358A2.344,2.344,0,0,0,35.938,6.25h-6.25a1.562,1.562,0,0,0-1.562,1.563V9.375a1.562,1.562,0,0,0,1.563,1.563h4.946l1.455,2.344H25V11.719a1.562,1.562,0,0,0-1.562-1.562H14.9a2.387,2.387,0,0,0-2.4,2.386,2.344,2.344,0,0,0,2.343,2.3H19.6L16.73,19.484a12.5,12.5,0,1,0,7.877,14.891h5.081a2.344,2.344,0,0,0,1.993-1.11L40.075,19.7l1.459,2.35A12.466,12.466,0,0,0,37.5,31.277,12.662,12.662,0,0,0,49.876,43.749a12.5,12.5,0,1,0,.174-25Zm-31.812,7.2a7.8,7.8,0,0,1,1.918,3.733H15.926ZM12.5,39.063a7.813,7.813,0,1,1,1.67-15.443L9.726,30.8a2.345,2.345,0,0,0,1.993,3.577h7.939A7.823,7.823,0,0,1,12.5,39.063Zm15.882-9.375H24.9a12.475,12.475,0,0,0-4.139-7.815l2.417-3.9H35.637L28.382,29.688Zm21.2,9.364a7.806,7.806,0,0,1-5.5-12.892l4.339,6.991a1.562,1.562,0,0,0,2.152.5l1.328-.824a1.562,1.562,0,0,0,.5-2.152l-4.343-7a7.813,7.813,0,1,1,1.518,15.37Z" transform="translate(0 -6.25)"/>
</svg>

