<svg xmlns="http://www.w3.org/2000/svg" width="56.249" height="43.75" viewBox="0 0 56.249 43.75">
  <path id="Icon_awesome-book-open" data-name="Icon awesome-book-open" d="M52.951,3.13C47.6,3.434,36.963,4.539,30.4,8.559a1.5,1.5,0,0,0-.71,1.286V45.379A1.545,1.545,0,0,0,31.96,46.7c6.756-3.4,16.526-4.328,21.357-4.582a3.046,3.046,0,0,0,2.932-2.994V6.128A3.061,3.061,0,0,0,52.951,3.13Zm-27.1,5.429C19.287,4.539,8.65,3.435,3.3,3.13a3.063,3.063,0,0,0-3.3,3V39.121a3.044,3.044,0,0,0,2.932,2.994C7.765,42.369,17.54,43.3,24.3,46.7a1.541,1.541,0,0,0,2.267-1.314V9.827A1.47,1.47,0,0,0,25.853,8.559Z" transform="translate(0 -3.125)"/>
</svg>
