<svg xmlns="http://www.w3.org/2000/svg" width="45" height="50" viewBox="0 0 66.257 75.762">
  <g id="lamanubox" transform="translate(0 1)">
    <g id="Groupe_1" data-name="Groupe 1" transform="translate(0 36.603)">
      <path id="Tracé_1" data-name="Tracé 1" d="M303.3-149.886l.807,4.084h2.319l-3.378-17.8h-2.319L297.4-145.8h.857l.857-4.084Zm-2.067-11.647,1.815,11.193h-3.832Z" transform="translate(-289.888 163.6)" fill="#fff"/>
      <path id="Tracé_2" data-name="Tracé 2" d="M340.9-145.7v-17.8h-1.513L335.1-151.349,330.665-163.5H328.8v17.8h.958v-13.512l4.588,12.1,4.285-12.1V-145.7Z" transform="translate(-305.456 163.55)" fill="#fff"/>
      <path id="Tracé_3" data-name="Tracé 3" d="M282.5-163.5v17.8h7.109l.05-.5h-4.84V-163.5Z" transform="translate(-282.5 163.55)" fill="#fff"/>
      <path id="Tracé_4" data-name="Tracé 4" d="M383.773-145.35h.3l-.05-18.15h-.958v12.1l-6.05-12.1H375v17.747h1.008v-14.974Z" transform="translate(-328.363 163.55)" fill="#fff"/>
      <path id="Tracé_5" data-name="Tracé 5" d="M404.017-148.778a2.82,2.82,0,0,1-.655,1.966,2.231,2.231,0,0,1-1.815.756,3.74,3.74,0,0,1-1.26-.252,3.451,3.451,0,0,1-1.765-1.613,2.342,2.342,0,0,1-.3-1.16V-163.5H395.9v14.722c0,2.269,1.311,3.428,3.882,3.428.605,0,1.21-.05,1.765-.1a3.775,3.775,0,0,0,1.664-.5,3.622,3.622,0,0,0,1.26-1.21,4.34,4.34,0,0,0,.5-2.218V-163.45h-.958Z" transform="translate(-338.726 163.55)" fill="#fff"/>
      <path id="Tracé_6" data-name="Tracé 6" d="M358.328-163.5,355-145.7h.857l.857-4.084H360.9l.857,4.084h2.319L360.7-163.5Zm-1.513,13.159,2.017-11.193,1.815,11.193Z" transform="translate(-318.447 163.55)" fill="#fff"/>
    </g>
    <path id="Tracé_7" data-name="Tracé 7" d="M298-205.949v-7.008h23.8V-226.52l4.185,1.16v9.932h6.907v-3.227h2.118v-15.025h3.68v14.571l4.84.2,1.16-17.293h2.773l1.16,23.243v7.008" transform="translate(-290.185 236.2)" fill="none" stroke="#00a3e1" stroke-miterlimit="10" stroke-width="2"/>
    <path id="Tracé_8" data-name="Tracé 8" d="M298-116.1v13.21h50.62V-116.1" transform="translate(-290.185 176.652)" fill="none" stroke="#00a3e1" stroke-miterlimit="10" stroke-width="2"/>
    <text id="BOX" transform="translate(25.125 65.157)" fill="#fff" font-size="9" font-family="DicoCodeOne-Bold, Dico Code One" font-weight="700"><tspan x="0" y="0">BOX</tspan></text>
  </g>
</svg>
